<?xml version="1.0" standalone="no"?>
<svg xmlns:xlink="http://www.w3.org/1999/xlink" id="wave" style="transform:rotate(0deg); transition: 0.3s" viewBox="0 0 1440 490" version="1.1" xmlns="http://www.w3.org/2000/svg"><defs><linearGradient id="sw-gradient-0" x1="0" x2="0" y1="1" y2="0"><stop stop-color="rgba(120.357, 115.087, 159.802, 1)" offset="0%"/><stop stop-color="rgba(53.939, 83.229, 168.909, 1)" offset="100%"/></linearGradient></defs><path style="transform:translate(0, 0px); opacity:1" fill="url(#sw-gradient-0)" d="M0,98L26.7,130.7C53.3,163,107,229,160,269.5C213.3,310,267,327,320,302.2C373.3,278,427,212,480,196C533.3,180,587,212,640,212.3C693.3,212,747,180,800,187.8C853.3,196,907,245,960,236.8C1013.3,229,1067,163,1120,163.3C1173.3,163,1227,229,1280,285.8C1333.3,343,1387,392,1440,408.3C1493.3,425,1547,408,1600,367.5C1653.3,327,1707,261,1760,261.3C1813.3,261,1867,327,1920,302.2C1973.3,278,2027,163,2080,114.3C2133.3,65,2187,82,2240,138.8C2293.3,196,2347,294,2400,285.8C2453.3,278,2507,163,2560,163.3C2613.3,163,2667,278,2720,302.2C2773.3,327,2827,261,2880,245C2933.3,229,2987,261,3040,302.2C3093.3,343,3147,392,3200,375.7C3253.3,359,3307,278,3360,269.5C3413.3,261,3467,327,3520,318.5C3573.3,310,3627,229,3680,171.5C3733.3,114,3787,82,3813,65.3L3840,49L3840,490L3813.3,490C3786.7,490,3733,490,3680,490C3626.7,490,3573,490,3520,490C3466.7,490,3413,490,3360,490C3306.7,490,3253,490,3200,490C3146.7,490,3093,490,3040,490C2986.7,490,2933,490,2880,490C2826.7,490,2773,490,2720,490C2666.7,490,2613,490,2560,490C2506.7,490,2453,490,2400,490C2346.7,490,2293,490,2240,490C2186.7,490,2133,490,2080,490C2026.7,490,1973,490,1920,490C1866.7,490,1813,490,1760,490C1706.7,490,1653,490,1600,490C1546.7,490,1493,490,1440,490C1386.7,490,1333,490,1280,490C1226.7,490,1173,490,1120,490C1066.7,490,1013,490,960,490C906.7,490,853,490,800,490C746.7,490,693,490,640,490C586.7,490,533,490,480,490C426.7,490,373,490,320,490C266.7,490,213,490,160,490C106.7,490,53,490,27,490L0,490Z"/></svg>